<?xml version="1.0" ?><!DOCTYPE svg  PUBLIC '-//W3C//DTD SVG 1.0//EN'  'http://www.w3.org/TR/2001/REC-SVG-20010904/DTD/svg10.dtd'>
<svg enable-background="new 0 0 91.8 92.6" id="Layer_1" version="1.0" viewBox="0 0 91.8 92.6" xml:space="preserve" xmlns="http://www.w3.org/2000/svg" xmlns:xlink="http://www.w3.org/1999/xlink">

    <defs>
       <linearGradient id="grad1" x1="0%" y1="0%" x2="100%" y2="100%">
         <stop offset="0%" style="stop-color:#005CAD;" />
   <stop offset="50%" style="stop-color:#0087FF;" />
         <stop offset="100%" style="stop-color:#33C3F0;" />
       </linearGradient>
     </defs>

   <rect width="91.8" rx="10" ry="10" height="92.6" fill="url(#grad1)" />

    <path opacity="0.5" d="M46,4.6c-23.5,0-42.5,19-42.5,42.5c0,23.5,19,42.5,42.5,42.5c23.5,0,42.5-19,42.5-42.5  C88.5,23.7,69.5,4.6,46,4.6z M39.5,67.7c-3.3,0-6.1-2.7-6.1-6.1c0-3.3,2.7-6.1,6.1-6.1s6.1,2.7,6.1,6.1C45.6,65,42.9,67.7,39.5,67.7  z M39.5,38.8c-3.3,0-6.1-2.7-6.1-6.1s2.7-6.1,6.1-6.1s6.1,2.7,6.1,6.1S42.9,38.8,39.5,38.8z M62.5,48.4c0,0.3-0.3,0.6-0.6,0.6H48.6  c-0.3,0-0.6-0.3-0.6-0.6v-1.8c0-0.3,0.3-0.6,0.6-0.6h13.3c0.3,0,0.6,0.3,0.6,0.6V48.4z" fill="#FFF"/></svg>
